<?xml version="1.0" encoding="utf-8" standalone="no"?>
<!DOCTYPE svg PUBLIC "-//W3C//DTD SVG 1.1//EN"
  "http://www.w3.org/Graphics/SVG/1.1/DTD/svg11.dtd">
<svg xmlns:xlink="http://www.w3.org/1999/xlink" width="424.558125pt" height="280.116406pt" viewBox="0 0 424.558125 280.116406" xmlns="http://www.w3.org/2000/svg" version="1.1">
 <metadata>
  <rdf:RDF xmlns:dc="http://purl.org/dc/elements/1.1/" xmlns:cc="http://creativecommons.org/ns#" xmlns:rdf="http://www.w3.org/1999/02/22-rdf-syntax-ns#">
   <cc:Work>
    <dc:type rdf:resource="http://purl.org/dc/dcmitype/StillImage"/>
    <dc:date>2026-07-22T18:34:18.910200</dc:date>
    <dc:format>image/svg+xml</dc:format>
    <dc:creator>
     <cc:Agent>
      <dc:title>Matplotlib v3.8.1, https://matplotlib.org/</dc:title>
     </cc:Agent>
    </dc:creator>
   </cc:Work>
  </rdf:RDF>
 </metadata>
 <defs>
  <style type="text/css">*{stroke-linejoin: round; stroke-linecap: butt}</style>
 </defs>
 <g id="figure_1">
  <g id="patch_1">
   <path d="M 0 280.116406 
L 424.558125 280.116406 
L 424.558125 0 
L 0 0 
z
" style="fill: #ffffff"/>
  </g>
  <g id="axes_1">
   <g id="patch_2">
    <path d="M 53.328125 256.238281 
L 417.358125 256.238281 
L 417.358125 21.558281 
L 53.328125 21.558281 
z
" style="fill: #ffffff"/>
   </g>
   <g id="patch_3">
    <path d="M 69.874943 256.238281 
L 73.635584 256.238281 
L 73.635584 239.275034 
L 69.874943 239.275034 
z
" clip-path="url(#p6eaf620a8c)" style="fill: #447fdd; fill-opacity: 0.7; stroke: #ffffff; stroke-width: 0.345868; stroke-linejoin: miter"/>
   </g>
   <g id="patch_4">
    <path d="M 73.635584 256.238281 
L 77.396224 256.238281 
L 77.396224 256.238281 
L 73.635584 256.238281 
z
" clip-path="url(#p6eaf620a8c)" style="fill: #447fdd; fill-opacity: 0.7; stroke: #ffffff; stroke-width: 0.345868; stroke-linejoin: miter"/>
   </g>
   <g id="patch_5">
    <path d="M 77.396224 256.238281 
L 81.156865 256.238281 
L 81.156865 256.238281 
L 77.396224 256.238281 
z
" clip-path="url(#p6eaf620a8c)" style="fill: #447fdd; fill-opacity: 0.7; stroke: #ffffff; stroke-width: 0.345868; stroke-linejoin: miter"/>
   </g>
   <g id="patch_6">
    <path d="M 81.156865 256.238281 
L 84.917505 256.238281 
L 84.917505 256.238281 
L 81.156865 256.238281 
z
" clip-path="url(#p6eaf620a8c)" style="fill: #447fdd; fill-opacity: 0.7; stroke: #ffffff; stroke-width: 0.345868; stroke-linejoin: miter"/>
   </g>
   <g id="patch_7">
    <path d="M 84.917505 256.238281 
L 88.678146 256.238281 
L 88.678146 256.238281 
L 84.917505 256.238281 
z
" clip-path="url(#p6eaf620a8c)" style="fill: #447fdd; fill-opacity: 0.7; stroke: #ffffff; stroke-width: 0.345868; stroke-linejoin: miter"/>
   </g>
   <g id="patch_8">
    <path d="M 88.678146 256.238281 
L 92.438786 256.238281 
L 92.438786 256.238281 
L 88.678146 256.238281 
z
" clip-path="url(#p6eaf620a8c)" style="fill: #447fdd; fill-opacity: 0.7; stroke: #ffffff; stroke-width: 0.345868; stroke-linejoin: miter"/>
   </g>
   <g id="patch_9">
    <path d="M 92.438786 256.238281 
L 96.199427 256.238281 
L 96.199427 256.238281 
L 92.438786 256.238281 
z
" clip-path="url(#p6eaf620a8c)" style="fill: #447fdd; fill-opacity: 0.7; stroke: #ffffff; stroke-width: 0.345868; stroke-linejoin: miter"/>
   </g>
   <g id="patch_10">
    <path d="M 96.199427 256.238281 
L 99.960067 256.238281 
L 99.960067 256.238281 
L 96.199427 256.238281 
z
" clip-path="url(#p6eaf620a8c)" style="fill: #447fdd; fill-opacity: 0.7; stroke: #ffffff; stroke-width: 0.345868; stroke-linejoin: miter"/>
   </g>
   <g id="patch_11">
    <path d="M 99.960067 256.238281 
L 103.720708 256.238281 
L 103.720708 256.238281 
L 99.960067 256.238281 
z
" clip-path="url(#p6eaf620a8c)" style="fill: #447fdd; fill-opacity: 0.7; stroke: #ffffff; stroke-width: 0.345868; stroke-linejoin: miter"/>
   </g>
   <g id="patch_12">
    <path d="M 103.720708 256.238281 
L 107.481348 256.238281 
L 107.481348 256.051872 
L 103.720708 256.051872 
z
" clip-path="url(#p6eaf620a8c)" style="fill: #447fdd; fill-opacity: 0.7; stroke: #ffffff; stroke-width: 0.345868; stroke-linejoin: miter"/>
   </g>
   <g id="patch_13">
    <path d="M 107.481348 256.238281 
L 111.241989 256.238281 
L 111.241989 256.051872 
L 107.481348 256.051872 
z
" clip-path="url(#p6eaf620a8c)" style="fill: #447fdd; fill-opacity: 0.7; stroke: #ffffff; stroke-width: 0.345868; stroke-linejoin: miter"/>
   </g>
   <g id="patch_14">
    <path d="M 111.241989 256.238281 
L 115.002629 256.238281 
L 115.002629 256.238281 
L 111.241989 256.238281 
z
" clip-path="url(#p6eaf620a8c)" style="fill: #447fdd; fill-opacity: 0.7; stroke: #ffffff; stroke-width: 0.345868; stroke-linejoin: miter"/>
   </g>
   <g id="patch_15">
    <path d="M 115.002629 256.238281 
L 118.76327 256.238281 
L 118.76327 256.238281 
L 115.002629 256.238281 
z
" clip-path="url(#p6eaf620a8c)" style="fill: #447fdd; fill-opacity: 0.7; stroke: #ffffff; stroke-width: 0.345868; stroke-linejoin: miter"/>
   </g>
   <g id="patch_16">
    <path d="M 118.76327 256.238281 
L 122.52391 256.238281 
L 122.52391 256.051872 
L 118.76327 256.051872 
z
" clip-path="url(#p6eaf620a8c)" style="fill: #447fdd; fill-opacity: 0.7; stroke: #ffffff; stroke-width: 0.345868; stroke-linejoin: miter"/>
   </g>
   <g id="patch_17">
    <path d="M 122.52391 256.238281 
L 126.284551 256.238281 
L 126.284551 255.865463 
L 122.52391 255.865463 
z
" clip-path="url(#p6eaf620a8c)" style="fill: #447fdd; fill-opacity: 0.7; stroke: #ffffff; stroke-width: 0.345868; stroke-linejoin: miter"/>
   </g>
   <g id="patch_18">
    <path d="M 126.284551 256.238281 
L 130.045191 256.238281 
L 130.045191 256.051872 
L 126.284551 256.051872 
z
" clip-path="url(#p6eaf620a8c)" style="fill: #447fdd; fill-opacity: 0.7; stroke: #ffffff; stroke-width: 0.345868; stroke-linejoin: miter"/>
   </g>
   <g id="patch_19">
    <path d="M 130.045191 256.238281 
L 133.805832 256.238281 
L 133.805832 256.051872 
L 130.045191 256.051872 
z
" clip-path="url(#p6eaf620a8c)" style="fill: #447fdd; fill-opacity: 0.7; stroke: #ffffff; stroke-width: 0.345868; stroke-linejoin: miter"/>
   </g>
   <g id="patch_20">
    <path d="M 133.805832 256.238281 
L 137.566472 256.238281 
L 137.566472 255.492644 
L 133.805832 255.492644 
z
" clip-path="url(#p6eaf620a8c)" style="fill: #447fdd; fill-opacity: 0.7; stroke: #ffffff; stroke-width: 0.345868; stroke-linejoin: miter"/>
   </g>
   <g id="patch_21">
    <path d="M 137.566472 256.238281 
L 141.327113 256.238281 
L 141.327113 255.492644 
L 137.566472 255.492644 
z
" clip-path="url(#p6eaf620a8c)" style="fill: #447fdd; fill-opacity: 0.7; stroke: #ffffff; stroke-width: 0.345868; stroke-linejoin: miter"/>
   </g>
   <g id="patch_22">
    <path d="M 141.327113 256.238281 
L 145.087753 256.238281 
L 145.087753 255.119825 
L 141.327113 255.119825 
z
" clip-path="url(#p6eaf620a8c)" style="fill: #447fdd; fill-opacity: 0.7; stroke: #ffffff; stroke-width: 0.345868; stroke-linejoin: miter"/>
   </g>
   <g id="patch_23">
    <path d="M 145.087753 256.238281 
L 148.848394 256.238281 
L 148.848394 254.747007 
L 145.087753 254.747007 
z
" clip-path="url(#p6eaf620a8c)" style="fill: #447fdd; fill-opacity: 0.7; stroke: #ffffff; stroke-width: 0.345868; stroke-linejoin: miter"/>
   </g>
   <g id="patch_24">
    <path d="M 148.848394 256.238281 
L 152.609034 256.238281 
L 152.609034 254.933416 
L 148.848394 254.933416 
z
" clip-path="url(#p6eaf620a8c)" style="fill: #447fdd; fill-opacity: 0.7; stroke: #ffffff; stroke-width: 0.345868; stroke-linejoin: miter"/>
   </g>
   <g id="patch_25">
    <path d="M 152.609034 256.238281 
L 156.369675 256.238281 
L 156.369675 254.560597 
L 152.609034 254.560597 
z
" clip-path="url(#p6eaf620a8c)" style="fill: #447fdd; fill-opacity: 0.7; stroke: #ffffff; stroke-width: 0.345868; stroke-linejoin: miter"/>
   </g>
   <g id="patch_26">
    <path d="M 156.369675 256.238281 
L 160.130315 256.238281 
L 160.130315 253.442142 
L 156.369675 253.442142 
z
" clip-path="url(#p6eaf620a8c)" style="fill: #447fdd; fill-opacity: 0.7; stroke: #ffffff; stroke-width: 0.345868; stroke-linejoin: miter"/>
   </g>
   <g id="patch_27">
    <path d="M 160.130315 256.238281 
L 163.890956 256.238281 
L 163.890956 254.187779 
L 160.130315 254.187779 
z
" clip-path="url(#p6eaf620a8c)" style="fill: #447fdd; fill-opacity: 0.7; stroke: #ffffff; stroke-width: 0.345868; stroke-linejoin: miter"/>
   </g>
   <g id="patch_28">
    <path d="M 163.890956 256.238281 
L 167.651596 256.238281 
L 167.651596 254.187779 
L 163.890956 254.187779 
z
" clip-path="url(#p6eaf620a8c)" style="fill: #447fdd; fill-opacity: 0.7; stroke: #ffffff; stroke-width: 0.345868; stroke-linejoin: miter"/>
   </g>
   <g id="patch_29">
    <path d="M 167.651596 256.238281 
L 171.412237 256.238281 
L 171.412237 253.255732 
L 167.651596 253.255732 
z
" clip-path="url(#p6eaf620a8c)" style="fill: #447fdd; fill-opacity: 0.7; stroke: #ffffff; stroke-width: 0.345868; stroke-linejoin: miter"/>
   </g>
   <g id="patch_30">
    <path d="M 171.412237 256.238281 
L 175.172877 256.238281 
L 175.172877 254.560597 
L 171.412237 254.560597 
z
" clip-path="url(#p6eaf620a8c)" style="fill: #447fdd; fill-opacity: 0.7; stroke: #ffffff; stroke-width: 0.345868; stroke-linejoin: miter"/>
   </g>
   <g id="patch_31">
    <path d="M 175.172877 256.238281 
L 178.933518 256.238281 
L 178.933518 253.628551 
L 175.172877 253.628551 
z
" clip-path="url(#p6eaf620a8c)" style="fill: #447fdd; fill-opacity: 0.7; stroke: #ffffff; stroke-width: 0.345868; stroke-linejoin: miter"/>
   </g>
   <g id="patch_32">
    <path d="M 178.933518 256.238281 
L 182.694158 256.238281 
L 182.694158 251.764458 
L 178.933518 251.764458 
z
" clip-path="url(#p6eaf620a8c)" style="fill: #447fdd; fill-opacity: 0.7; stroke: #ffffff; stroke-width: 0.345868; stroke-linejoin: miter"/>
   </g>
   <g id="patch_33">
    <path d="M 182.694158 256.238281 
L 186.454799 256.238281 
L 186.454799 251.391639 
L 182.694158 251.391639 
z
" clip-path="url(#p6eaf620a8c)" style="fill: #447fdd; fill-opacity: 0.7; stroke: #ffffff; stroke-width: 0.345868; stroke-linejoin: miter"/>
   </g>
   <g id="patch_34">
    <path d="M 186.454799 256.238281 
L 190.215439 256.238281 
L 190.215439 249.713955 
L 186.454799 249.713955 
z
" clip-path="url(#p6eaf620a8c)" style="fill: #447fdd; fill-opacity: 0.7; stroke: #ffffff; stroke-width: 0.345868; stroke-linejoin: miter"/>
   </g>
   <g id="patch_35">
    <path d="M 190.215439 256.238281 
L 193.97608 256.238281 
L 193.97608 249.154727 
L 190.215439 249.154727 
z
" clip-path="url(#p6eaf620a8c)" style="fill: #447fdd; fill-opacity: 0.7; stroke: #ffffff; stroke-width: 0.345868; stroke-linejoin: miter"/>
   </g>
   <g id="patch_36">
    <path d="M 193.97608 256.238281 
L 197.73672 256.238281 
L 197.73672 249.713955 
L 193.97608 249.713955 
z
" clip-path="url(#p6eaf620a8c)" style="fill: #447fdd; fill-opacity: 0.7; stroke: #ffffff; stroke-width: 0.345868; stroke-linejoin: miter"/>
   </g>
   <g id="patch_37">
    <path d="M 197.73672 256.238281 
L 201.497361 256.238281 
L 201.497361 248.5955 
L 197.73672 248.5955 
z
" clip-path="url(#p6eaf620a8c)" style="fill: #447fdd; fill-opacity: 0.7; stroke: #ffffff; stroke-width: 0.345868; stroke-linejoin: miter"/>
   </g>
   <g id="patch_38">
    <path d="M 201.497361 256.238281 
L 205.258001 256.238281 
L 205.258001 248.40909 
L 201.497361 248.40909 
z
" clip-path="url(#p6eaf620a8c)" style="fill: #447fdd; fill-opacity: 0.7; stroke: #ffffff; stroke-width: 0.345868; stroke-linejoin: miter"/>
   </g>
   <g id="patch_39">
    <path d="M 205.258001 256.238281 
L 209.018642 256.238281 
L 209.018642 246.917816 
L 205.258001 246.917816 
z
" clip-path="url(#p6eaf620a8c)" style="fill: #447fdd; fill-opacity: 0.7; stroke: #ffffff; stroke-width: 0.345868; stroke-linejoin: miter"/>
   </g>
   <g id="patch_40">
    <path d="M 209.018642 256.238281 
L 212.779282 256.238281 
L 212.779282 245.240132 
L 209.018642 245.240132 
z
" clip-path="url(#p6eaf620a8c)" style="fill: #447fdd; fill-opacity: 0.7; stroke: #ffffff; stroke-width: 0.345868; stroke-linejoin: miter"/>
   </g>
   <g id="patch_41">
    <path d="M 212.779282 256.238281 
L 216.539923 256.238281 
L 216.539923 242.071174 
L 212.779282 242.071174 
z
" clip-path="url(#p6eaf620a8c)" style="fill: #447fdd; fill-opacity: 0.7; stroke: #ffffff; stroke-width: 0.345868; stroke-linejoin: miter"/>
   </g>
   <g id="patch_42">
    <path d="M 216.539923 256.238281 
L 220.300563 256.238281 
L 220.300563 241.325537 
L 216.539923 241.325537 
z
" clip-path="url(#p6eaf620a8c)" style="fill: #447fdd; fill-opacity: 0.7; stroke: #ffffff; stroke-width: 0.345868; stroke-linejoin: miter"/>
   </g>
   <g id="patch_43">
    <path d="M 220.300563 256.238281 
L 224.061204 256.238281 
L 224.061204 241.511946 
L 220.300563 241.511946 
z
" clip-path="url(#p6eaf620a8c)" style="fill: #447fdd; fill-opacity: 0.7; stroke: #ffffff; stroke-width: 0.345868; stroke-linejoin: miter"/>
   </g>
   <g id="patch_44">
    <path d="M 224.061204 256.238281 
L 227.821844 256.238281 
L 227.821844 240.39349 
L 224.061204 240.39349 
z
" clip-path="url(#p6eaf620a8c)" style="fill: #447fdd; fill-opacity: 0.7; stroke: #ffffff; stroke-width: 0.345868; stroke-linejoin: miter"/>
   </g>
   <g id="patch_45">
    <path d="M 227.821844 256.238281 
L 231.582485 256.238281 
L 231.582485 235.733257 
L 227.821844 235.733257 
z
" clip-path="url(#p6eaf620a8c)" style="fill: #447fdd; fill-opacity: 0.7; stroke: #ffffff; stroke-width: 0.345868; stroke-linejoin: miter"/>
   </g>
   <g id="patch_46">
    <path d="M 231.582485 256.238281 
L 235.343125 256.238281 
L 235.343125 234.055573 
L 231.582485 234.055573 
z
" clip-path="url(#p6eaf620a8c)" style="fill: #447fdd; fill-opacity: 0.7; stroke: #ffffff; stroke-width: 0.345868; stroke-linejoin: miter"/>
   </g>
   <g id="patch_47">
    <path d="M 235.343125 256.238281 
L 239.103765 256.238281 
L 239.103765 231.818662 
L 235.343125 231.818662 
z
" clip-path="url(#p6eaf620a8c)" style="fill: #447fdd; fill-opacity: 0.7; stroke: #ffffff; stroke-width: 0.345868; stroke-linejoin: miter"/>
   </g>
   <g id="patch_48">
    <path d="M 239.103765 256.238281 
L 242.864406 256.238281 
L 242.864406 229.768159 
L 239.103765 229.768159 
z
" clip-path="url(#p6eaf620a8c)" style="fill: #447fdd; fill-opacity: 0.7; stroke: #ffffff; stroke-width: 0.345868; stroke-linejoin: miter"/>
   </g>
   <g id="patch_49">
    <path d="M 242.864406 256.238281 
L 246.625046 256.238281 
L 246.625046 224.548699 
L 242.864406 224.548699 
z
" clip-path="url(#p6eaf620a8c)" style="fill: #447fdd; fill-opacity: 0.7; stroke: #ffffff; stroke-width: 0.345868; stroke-linejoin: miter"/>
   </g>
   <g id="patch_50">
    <path d="M 246.625046 256.238281 
L 250.385687 256.238281 
L 250.385687 223.430243 
L 246.625046 223.430243 
z
" clip-path="url(#p6eaf620a8c)" style="fill: #447fdd; fill-opacity: 0.7; stroke: #ffffff; stroke-width: 0.345868; stroke-linejoin: miter"/>
   </g>
   <g id="patch_51">
    <path d="M 250.385687 256.238281 
L 254.146327 256.238281 
L 254.146327 217.278736 
L 250.385687 217.278736 
z
" clip-path="url(#p6eaf620a8c)" style="fill: #447fdd; fill-opacity: 0.7; stroke: #ffffff; stroke-width: 0.345868; stroke-linejoin: miter"/>
   </g>
   <g id="patch_52">
    <path d="M 254.146327 256.238281 
L 257.906968 256.238281 
L 257.906968 216.533098 
L 254.146327 216.533098 
z
" clip-path="url(#p6eaf620a8c)" style="fill: #447fdd; fill-opacity: 0.7; stroke: #ffffff; stroke-width: 0.345868; stroke-linejoin: miter"/>
   </g>
   <g id="patch_53">
    <path d="M 257.906968 256.238281 
L 261.667608 256.238281 
L 261.667608 203.298037 
L 257.906968 203.298037 
z
" clip-path="url(#p6eaf620a8c)" style="fill: #447fdd; fill-opacity: 0.7; stroke: #ffffff; stroke-width: 0.345868; stroke-linejoin: miter"/>
   </g>
   <g id="patch_54">
    <path d="M 261.667608 256.238281 
L 265.428249 256.238281 
L 265.428249 195.282437 
L 261.667608 195.282437 
z
" clip-path="url(#p6eaf620a8c)" style="fill: #447fdd; fill-opacity: 0.7; stroke: #ffffff; stroke-width: 0.345868; stroke-linejoin: miter"/>
   </g>
   <g id="patch_55">
    <path d="M 265.428249 256.238281 
L 269.188889 256.238281 
L 269.188889 180.183283 
L 265.428249 180.183283 
z
" clip-path="url(#p6eaf620a8c)" style="fill: #447fdd; fill-opacity: 0.7; stroke: #ffffff; stroke-width: 0.345868; stroke-linejoin: miter"/>
   </g>
   <g id="patch_56">
    <path d="M 269.188889 256.238281 
L 272.94953 256.238281 
L 272.94953 161.728761 
L 269.188889 161.728761 
z
" clip-path="url(#p6eaf620a8c)" style="fill: #447fdd; fill-opacity: 0.7; stroke: #ffffff; stroke-width: 0.345868; stroke-linejoin: miter"/>
   </g>
   <g id="patch_57">
    <path d="M 272.94953 256.238281 
L 276.71017 256.238281 
L 276.71017 130.411997 
L 272.94953 130.411997 
z
" clip-path="url(#p6eaf620a8c)" style="fill: #447fdd; fill-opacity: 0.7; stroke: #ffffff; stroke-width: 0.345868; stroke-linejoin: miter"/>
   </g>
   <g id="patch_58">
    <path d="M 276.71017 256.238281 
L 280.470811 256.238281 
L 280.470811 32.733519 
L 276.71017 32.733519 
z
" clip-path="url(#p6eaf620a8c)" style="fill: #447fdd; fill-opacity: 0.7; stroke: #ffffff; stroke-width: 0.345868; stroke-linejoin: miter"/>
   </g>
   <g id="patch_59">
    <path d="M 280.470811 256.238281 
L 284.231451 256.238281 
L 284.231451 195.282437 
L 280.470811 195.282437 
z
" clip-path="url(#p6eaf620a8c)" style="fill: #447fdd; fill-opacity: 0.7; stroke: #ffffff; stroke-width: 0.345868; stroke-linejoin: miter"/>
   </g>
   <g id="patch_60">
    <path d="M 284.231451 256.238281 
L 287.992092 256.238281 
L 287.992092 209.822363 
L 284.231451 209.822363 
z
" clip-path="url(#p6eaf620a8c)" style="fill: #447fdd; fill-opacity: 0.7; stroke: #ffffff; stroke-width: 0.345868; stroke-linejoin: miter"/>
   </g>
   <g id="patch_61">
    <path d="M 287.992092 256.238281 
L 291.752732 256.238281 
L 291.752732 220.634103 
L 287.992092 220.634103 
z
" clip-path="url(#p6eaf620a8c)" style="fill: #447fdd; fill-opacity: 0.7; stroke: #ffffff; stroke-width: 0.345868; stroke-linejoin: miter"/>
   </g>
   <g id="patch_62">
    <path d="M 291.752732 256.238281 
L 295.513373 256.238281 
L 295.513373 226.226382 
L 291.752732 226.226382 
z
" clip-path="url(#p6eaf620a8c)" style="fill: #447fdd; fill-opacity: 0.7; stroke: #ffffff; stroke-width: 0.345868; stroke-linejoin: miter"/>
   </g>
   <g id="patch_63">
    <path d="M 295.513373 256.238281 
L 299.274013 256.238281 
L 299.274013 235.174029 
L 295.513373 235.174029 
z
" clip-path="url(#p6eaf620a8c)" style="fill: #447fdd; fill-opacity: 0.7; stroke: #ffffff; stroke-width: 0.345868; stroke-linejoin: miter"/>
   </g>
   <g id="patch_64">
    <path d="M 299.274013 256.238281 
L 303.034654 256.238281 
L 303.034654 230.886615 
L 299.274013 230.886615 
z
" clip-path="url(#p6eaf620a8c)" style="fill: #447fdd; fill-opacity: 0.7; stroke: #ffffff; stroke-width: 0.345868; stroke-linejoin: miter"/>
   </g>
   <g id="patch_65">
    <path d="M 303.034654 256.238281 
L 306.795294 256.238281 
L 306.795294 231.073024 
L 303.034654 231.073024 
z
" clip-path="url(#p6eaf620a8c)" style="fill: #447fdd; fill-opacity: 0.7; stroke: #ffffff; stroke-width: 0.345868; stroke-linejoin: miter"/>
   </g>
   <g id="patch_66">
    <path d="M 306.795294 256.238281 
L 310.555935 256.238281 
L 310.555935 227.717657 
L 306.795294 227.717657 
z
" clip-path="url(#p6eaf620a8c)" style="fill: #447fdd; fill-opacity: 0.7; stroke: #ffffff; stroke-width: 0.345868; stroke-linejoin: miter"/>
   </g>
   <g id="patch_67">
    <path d="M 310.555935 256.238281 
L 314.316575 256.238281 
L 314.316575 232.937118 
L 310.555935 232.937118 
z
" clip-path="url(#p6eaf620a8c)" style="fill: #447fdd; fill-opacity: 0.7; stroke: #ffffff; stroke-width: 0.345868; stroke-linejoin: miter"/>
   </g>
   <g id="patch_68">
    <path d="M 314.316575 256.238281 
L 318.077216 256.238281 
L 318.077216 232.005071 
L 314.316575 232.005071 
z
" clip-path="url(#p6eaf620a8c)" style="fill: #447fdd; fill-opacity: 0.7; stroke: #ffffff; stroke-width: 0.345868; stroke-linejoin: miter"/>
   </g>
   <g id="patch_69">
    <path d="M 318.077216 256.238281 
L 321.837856 256.238281 
L 321.837856 236.851713 
L 318.077216 236.851713 
z
" clip-path="url(#p6eaf620a8c)" style="fill: #447fdd; fill-opacity: 0.7; stroke: #ffffff; stroke-width: 0.345868; stroke-linejoin: miter"/>
   </g>
   <g id="patch_70">
    <path d="M 321.837856 256.238281 
L 325.598497 256.238281 
L 325.598497 236.292485 
L 321.837856 236.292485 
z
" clip-path="url(#p6eaf620a8c)" style="fill: #447fdd; fill-opacity: 0.7; stroke: #ffffff; stroke-width: 0.345868; stroke-linejoin: miter"/>
   </g>
   <g id="patch_71">
    <path d="M 325.598497 256.238281 
L 329.359137 256.238281 
L 329.359137 235.733257 
L 325.598497 235.733257 
z
" clip-path="url(#p6eaf620a8c)" style="fill: #447fdd; fill-opacity: 0.7; stroke: #ffffff; stroke-width: 0.345868; stroke-linejoin: miter"/>
   </g>
   <g id="patch_72">
    <path d="M 329.359137 256.238281 
L 333.119778 256.238281 
L 333.119778 237.224532 
L 329.359137 237.224532 
z
" clip-path="url(#p6eaf620a8c)" style="fill: #447fdd; fill-opacity: 0.7; stroke: #ffffff; stroke-width: 0.345868; stroke-linejoin: miter"/>
   </g>
   <g id="patch_73">
    <path d="M 333.119778 256.238281 
L 336.880418 256.238281 
L 336.880418 236.665304 
L 333.119778 236.665304 
z
" clip-path="url(#p6eaf620a8c)" style="fill: #447fdd; fill-opacity: 0.7; stroke: #ffffff; stroke-width: 0.345868; stroke-linejoin: miter"/>
   </g>
   <g id="patch_74">
    <path d="M 336.880418 256.238281 
L 340.641059 256.238281 
L 340.641059 236.478894 
L 336.880418 236.478894 
z
" clip-path="url(#p6eaf620a8c)" style="fill: #447fdd; fill-opacity: 0.7; stroke: #ffffff; stroke-width: 0.345868; stroke-linejoin: miter"/>
   </g>
   <g id="patch_75">
    <path d="M 340.641059 256.238281 
L 344.401699 256.238281 
L 344.401699 236.292485 
L 340.641059 236.292485 
z
" clip-path="url(#p6eaf620a8c)" style="fill: #447fdd; fill-opacity: 0.7; stroke: #ffffff; stroke-width: 0.345868; stroke-linejoin: miter"/>
   </g>
   <g id="patch_76">
    <path d="M 344.401699 256.238281 
L 348.16234 256.238281 
L 348.16234 228.463294 
L 344.401699 228.463294 
z
" clip-path="url(#p6eaf620a8c)" style="fill: #447fdd; fill-opacity: 0.7; stroke: #ffffff; stroke-width: 0.345868; stroke-linejoin: miter"/>
   </g>
   <g id="patch_77">
    <path d="M 348.16234 256.238281 
L 351.92298 256.238281 
L 351.92298 234.055573 
L 348.16234 234.055573 
z
" clip-path="url(#p6eaf620a8c)" style="fill: #447fdd; fill-opacity: 0.7; stroke: #ffffff; stroke-width: 0.345868; stroke-linejoin: miter"/>
   </g>
   <g id="patch_78">
    <path d="M 351.92298 256.238281 
L 355.683621 256.238281 
L 355.683621 238.156578 
L 351.92298 238.156578 
z
" clip-path="url(#p6eaf620a8c)" style="fill: #447fdd; fill-opacity: 0.7; stroke: #ffffff; stroke-width: 0.345868; stroke-linejoin: miter"/>
   </g>
   <g id="patch_79">
    <path d="M 355.683621 256.238281 
L 359.444261 256.238281 
L 359.444261 240.952718 
L 355.683621 240.952718 
z
" clip-path="url(#p6eaf620a8c)" style="fill: #447fdd; fill-opacity: 0.7; stroke: #ffffff; stroke-width: 0.345868; stroke-linejoin: miter"/>
   </g>
   <g id="patch_80">
    <path d="M 359.444261 256.238281 
L 363.204902 256.238281 
L 363.204902 241.325537 
L 359.444261 241.325537 
z
" clip-path="url(#p6eaf620a8c)" style="fill: #447fdd; fill-opacity: 0.7; stroke: #ffffff; stroke-width: 0.345868; stroke-linejoin: miter"/>
   </g>
   <g id="patch_81">
    <path d="M 363.204902 256.238281 
L 366.965542 256.238281 
L 366.965542 240.579899 
L 363.204902 240.579899 
z
" clip-path="url(#p6eaf620a8c)" style="fill: #447fdd; fill-opacity: 0.7; stroke: #ffffff; stroke-width: 0.345868; stroke-linejoin: miter"/>
   </g>
   <g id="patch_82">
    <path d="M 366.965542 256.238281 
L 370.726183 256.238281 
L 370.726183 248.036272 
L 366.965542 248.036272 
z
" clip-path="url(#p6eaf620a8c)" style="fill: #447fdd; fill-opacity: 0.7; stroke: #ffffff; stroke-width: 0.345868; stroke-linejoin: miter"/>
   </g>
   <g id="patch_83">
    <path d="M 370.726183 256.238281 
L 374.486823 256.238281 
L 374.486823 250.273183 
L 370.726183 250.273183 
z
" clip-path="url(#p6eaf620a8c)" style="fill: #447fdd; fill-opacity: 0.7; stroke: #ffffff; stroke-width: 0.345868; stroke-linejoin: miter"/>
   </g>
   <g id="patch_84">
    <path d="M 374.486823 256.238281 
L 378.247464 256.238281 
L 378.247464 254.747007 
L 374.486823 254.747007 
z
" clip-path="url(#p6eaf620a8c)" style="fill: #447fdd; fill-opacity: 0.7; stroke: #ffffff; stroke-width: 0.345868; stroke-linejoin: miter"/>
   </g>
   <g id="patch_85">
    <path d="M 378.247464 256.238281 
L 382.008104 256.238281 
L 382.008104 254.560597 
L 378.247464 254.560597 
z
" clip-path="url(#p6eaf620a8c)" style="fill: #447fdd; fill-opacity: 0.7; stroke: #ffffff; stroke-width: 0.345868; stroke-linejoin: miter"/>
   </g>
   <g id="patch_86">
    <path d="M 382.008104 256.238281 
L 385.768745 256.238281 
L 385.768745 255.679053 
L 382.008104 255.679053 
z
" clip-path="url(#p6eaf620a8c)" style="fill: #447fdd; fill-opacity: 0.7; stroke: #ffffff; stroke-width: 0.345868; stroke-linejoin: miter"/>
   </g>
   <g id="patch_87">
    <path d="M 385.768745 256.238281 
L 389.529385 256.238281 
L 389.529385 255.492644 
L 385.768745 255.492644 
z
" clip-path="url(#p6eaf620a8c)" style="fill: #447fdd; fill-opacity: 0.7; stroke: #ffffff; stroke-width: 0.345868; stroke-linejoin: miter"/>
   </g>
   <g id="patch_88">
    <path d="M 389.529385 256.238281 
L 393.290026 256.238281 
L 393.290026 255.679053 
L 389.529385 255.679053 
z
" clip-path="url(#p6eaf620a8c)" style="fill: #447fdd; fill-opacity: 0.7; stroke: #ffffff; stroke-width: 0.345868; stroke-linejoin: miter"/>
   </g>
   <g id="patch_89">
    <path d="M 393.290026 256.238281 
L 397.050666 256.238281 
L 397.050666 256.238281 
L 393.290026 256.238281 
z
" clip-path="url(#p6eaf620a8c)" style="fill: #447fdd; fill-opacity: 0.7; stroke: #ffffff; stroke-width: 0.345868; stroke-linejoin: miter"/>
   </g>
   <g id="patch_90">
    <path d="M 397.050666 256.238281 
L 400.811307 256.238281 
L 400.811307 256.051872 
L 397.050666 256.051872 
z
" clip-path="url(#p6eaf620a8c)" style="fill: #447fdd; fill-opacity: 0.7; stroke: #ffffff; stroke-width: 0.345868; stroke-linejoin: miter"/>
   </g>
   <g id="matplotlib.axis_1">
    <g id="xtick_1">
     <g id="line2d_1">
      <defs>
       <path id="m378f4743af" d="M 0 0 
L 0 3.5 
" style="stroke: #000000; stroke-width: 0.8"/>
      </defs>
      <g>
       <use xlink:href="#m378f4743af" x="69.874943" y="256.238281" style="stroke: #000000; stroke-width: 0.8"/>
      </g>
     </g>
     <g id="text_1">
      <!-- 0.0 -->
      <g transform="translate(61.923381 270.836719) scale(0.1 -0.1)">
       <defs>
        <path id="DejaVuSans-30" d="M 2034 4250 
Q 1547 4250 1301 3770 
Q 1056 3291 1056 2328 
Q 1056 1369 1301 889 
Q 1547 409 2034 409 
Q 2525 409 2770 889 
Q 3016 1369 3016 2328 
Q 3016 3291 2770 3770 
Q 2525 4250 2034 4250 
z
M 2034 4750 
Q 2819 4750 3233 4129 
Q 3647 3509 3647 2328 
Q 3647 1150 3233 529 
Q 2819 -91 2034 -91 
Q 1250 -91 836 529 
Q 422 1150 422 2328 
Q 422 3509 836 4129 
Q 1250 4750 2034 4750 
z
" transform="scale(0.015625)"/>
        <path id="DejaVuSans-2e" d="M 684 794 
L 1344 794 
L 1344 0 
L 684 0 
L 684 794 
z
" transform="scale(0.015625)"/>
       </defs>
       <use xlink:href="#DejaVuSans-30"/>
       <use xlink:href="#DejaVuSans-2e" x="63.623047"/>
       <use xlink:href="#DejaVuSans-30" x="95.410156"/>
      </g>
     </g>
    </g>
    <g id="xtick_2">
     <g id="line2d_2">
      <g>
       <use xlink:href="#m378f4743af" x="111.822344" y="256.238281" style="stroke: #000000; stroke-width: 0.8"/>
      </g>
     </g>
     <g id="text_2">
      <!-- 0.2 -->
      <g transform="translate(103.870782 270.836719) scale(0.1 -0.1)">
       <defs>
        <path id="DejaVuSans-32" d="M 1228 531 
L 3431 531 
L 3431 0 
L 469 0 
L 469 531 
Q 828 903 1448 1529 
Q 2069 2156 2228 2338 
Q 2531 2678 2651 2914 
Q 2772 3150 2772 3378 
Q 2772 3750 2511 3984 
Q 2250 4219 1831 4219 
Q 1534 4219 1204 4116 
Q 875 4013 500 3803 
L 500 4441 
Q 881 4594 1212 4672 
Q 1544 4750 1819 4750 
Q 2544 4750 2975 4387 
Q 3406 4025 3406 3419 
Q 3406 3131 3298 2873 
Q 3191 2616 2906 2266 
Q 2828 2175 2409 1742 
Q 1991 1309 1228 531 
z
" transform="scale(0.015625)"/>
       </defs>
       <use xlink:href="#DejaVuSans-30"/>
       <use xlink:href="#DejaVuSans-2e" x="63.623047"/>
       <use xlink:href="#DejaVuSans-32" x="95.410156"/>
      </g>
     </g>
    </g>
    <g id="xtick_3">
     <g id="line2d_3">
      <g>
       <use xlink:href="#m378f4743af" x="153.769746" y="256.238281" style="stroke: #000000; stroke-width: 0.8"/>
      </g>
     </g>
     <g id="text_3">
      <!-- 0.4 -->
      <g transform="translate(145.818183 270.836719) scale(0.1 -0.1)">
       <defs>
        <path id="DejaVuSans-34" d="M 2419 4116 
L 825 1625 
L 2419 1625 
L 2419 4116 
z
M 2253 4666 
L 3047 4666 
L 3047 1625 
L 3713 1625 
L 3713 1100 
L 3047 1100 
L 3047 0 
L 2419 0 
L 2419 1100 
L 313 1100 
L 313 1709 
L 2253 4666 
z
" transform="scale(0.015625)"/>
       </defs>
       <use xlink:href="#DejaVuSans-30"/>
       <use xlink:href="#DejaVuSans-2e" x="63.623047"/>
       <use xlink:href="#DejaVuSans-34" x="95.410156"/>
      </g>
     </g>
    </g>
    <g id="xtick_4">
     <g id="line2d_4">
      <g>
       <use xlink:href="#m378f4743af" x="195.717147" y="256.238281" style="stroke: #000000; stroke-width: 0.8"/>
      </g>
     </g>
     <g id="text_4">
      <!-- 0.6 -->
      <g transform="translate(187.765584 270.836719) scale(0.1 -0.1)">
       <defs>
        <path id="DejaVuSans-36" d="M 2113 2584 
Q 1688 2584 1439 2293 
Q 1191 2003 1191 1497 
Q 1191 994 1439 701 
Q 1688 409 2113 409 
Q 2538 409 2786 701 
Q 3034 994 3034 1497 
Q 3034 2003 2786 2293 
Q 2538 2584 2113 2584 
z
M 3366 4563 
L 3366 3988 
Q 3128 4100 2886 4159 
Q 2644 4219 2406 4219 
Q 1781 4219 1451 3797 
Q 1122 3375 1075 2522 
Q 1259 2794 1537 2939 
Q 1816 3084 2150 3084 
Q 2853 3084 3261 2657 
Q 3669 2231 3669 1497 
Q 3669 778 3244 343 
Q 2819 -91 2113 -91 
Q 1303 -91 875 529 
Q 447 1150 447 2328 
Q 447 3434 972 4092 
Q 1497 4750 2381 4750 
Q 2619 4750 2861 4703 
Q 3103 4656 3366 4563 
z
" transform="scale(0.015625)"/>
       </defs>
       <use xlink:href="#DejaVuSans-30"/>
       <use xlink:href="#DejaVuSans-2e" x="63.623047"/>
       <use xlink:href="#DejaVuSans-36" x="95.410156"/>
      </g>
     </g>
    </g>
    <g id="xtick_5">
     <g id="line2d_5">
      <g>
       <use xlink:href="#m378f4743af" x="237.664548" y="256.238281" style="stroke: #000000; stroke-width: 0.8"/>
      </g>
     </g>
     <g id="text_5">
      <!-- 0.8 -->
      <g transform="translate(229.712986 270.836719) scale(0.1 -0.1)">
       <defs>
        <path id="DejaVuSans-38" d="M 2034 2216 
Q 1584 2216 1326 1975 
Q 1069 1734 1069 1313 
Q 1069 891 1326 650 
Q 1584 409 2034 409 
Q 2484 409 2743 651 
Q 3003 894 3003 1313 
Q 3003 1734 2745 1975 
Q 2488 2216 2034 2216 
z
M 1403 2484 
Q 997 2584 770 2862 
Q 544 3141 544 3541 
Q 544 4100 942 4425 
Q 1341 4750 2034 4750 
Q 2731 4750 3128 4425 
Q 3525 4100 3525 3541 
Q 3525 3141 3298 2862 
Q 3072 2584 2669 2484 
Q 3125 2378 3379 2068 
Q 3634 1759 3634 1313 
Q 3634 634 3220 271 
Q 2806 -91 2034 -91 
Q 1263 -91 848 271 
Q 434 634 434 1313 
Q 434 1759 690 2068 
Q 947 2378 1403 2484 
z
M 1172 3481 
Q 1172 3119 1398 2916 
Q 1625 2713 2034 2713 
Q 2441 2713 2670 2916 
Q 2900 3119 2900 3481 
Q 2900 3844 2670 4047 
Q 2441 4250 2034 4250 
Q 1625 4250 1398 4047 
Q 1172 3844 1172 3481 
z
" transform="scale(0.015625)"/>
       </defs>
       <use xlink:href="#DejaVuSans-30"/>
       <use xlink:href="#DejaVuSans-2e" x="63.623047"/>
       <use xlink:href="#DejaVuSans-38" x="95.410156"/>
      </g>
     </g>
    </g>
    <g id="xtick_6">
     <g id="line2d_6">
      <g>
       <use xlink:href="#m378f4743af" x="279.611949" y="256.238281" style="stroke: #000000; stroke-width: 0.8"/>
      </g>
     </g>
     <g id="text_6">
      <!-- 1.0 -->
      <g transform="translate(271.660387 270.836719) scale(0.1 -0.1)">
       <defs>
        <path id="DejaVuSans-31" d="M 794 531 
L 1825 531 
L 1825 4091 
L 703 3866 
L 703 4441 
L 1819 4666 
L 2450 4666 
L 2450 531 
L 3481 531 
L 3481 0 
L 794 0 
L 794 531 
z
" transform="scale(0.015625)"/>
       </defs>
       <use xlink:href="#DejaVuSans-31"/>
       <use xlink:href="#DejaVuSans-2e" x="63.623047"/>
       <use xlink:href="#DejaVuSans-30" x="95.410156"/>
      </g>
     </g>
    </g>
    <g id="xtick_7">
     <g id="line2d_7">
      <g>
       <use xlink:href="#m378f4743af" x="321.559351" y="256.238281" style="stroke: #000000; stroke-width: 0.8"/>
      </g>
     </g>
     <g id="text_7">
      <!-- 1.2 -->
      <g transform="translate(313.607788 270.836719) scale(0.1 -0.1)">
       <use xlink:href="#DejaVuSans-31"/>
       <use xlink:href="#DejaVuSans-2e" x="63.623047"/>
       <use xlink:href="#DejaVuSans-32" x="95.410156"/>
      </g>
     </g>
    </g>
    <g id="xtick_8">
     <g id="line2d_8">
      <g>
       <use xlink:href="#m378f4743af" x="363.506752" y="256.238281" style="stroke: #000000; stroke-width: 0.8"/>
      </g>
     </g>
     <g id="text_8">
      <!-- 1.4 -->
      <g transform="translate(355.555189 270.836719) scale(0.1 -0.1)">
       <use xlink:href="#DejaVuSans-31"/>
       <use xlink:href="#DejaVuSans-2e" x="63.623047"/>
       <use xlink:href="#DejaVuSans-34" x="95.410156"/>
      </g>
     </g>
    </g>
    <g id="xtick_9">
     <g id="line2d_9">
      <g>
       <use xlink:href="#m378f4743af" x="405.454153" y="256.238281" style="stroke: #000000; stroke-width: 0.8"/>
      </g>
     </g>
     <g id="text_9">
      <!-- 1.6 -->
      <g transform="translate(397.502591 270.836719) scale(0.1 -0.1)">
       <use xlink:href="#DejaVuSans-31"/>
       <use xlink:href="#DejaVuSans-2e" x="63.623047"/>
       <use xlink:href="#DejaVuSans-36" x="95.410156"/>
      </g>
     </g>
    </g>
   </g>
   <g id="matplotlib.axis_2">
    <g id="ytick_1">
     <g id="line2d_10">
      <defs>
       <path id="me2ba5d5f41" d="M 0 0 
L -3.5 0 
" style="stroke: #000000; stroke-width: 0.8"/>
      </defs>
      <g>
       <use xlink:href="#me2ba5d5f41" x="53.328125" y="256.238281" style="stroke: #000000; stroke-width: 0.8"/>
      </g>
     </g>
     <g id="text_10">
      <!-- 0 -->
      <g transform="translate(39.965625 260.0375) scale(0.1 -0.1)">
       <use xlink:href="#DejaVuSans-30"/>
      </g>
     </g>
    </g>
    <g id="ytick_2">
     <g id="line2d_11">
      <g>
       <use xlink:href="#me2ba5d5f41" x="53.328125" y="218.956419" style="stroke: #000000; stroke-width: 0.8"/>
      </g>
     </g>
     <g id="text_11">
      <!-- 200 -->
      <g transform="translate(27.240625 222.755638) scale(0.1 -0.1)">
       <use xlink:href="#DejaVuSans-32"/>
       <use xlink:href="#DejaVuSans-30" x="63.623047"/>
       <use xlink:href="#DejaVuSans-30" x="127.246094"/>
      </g>
     </g>
    </g>
    <g id="ytick_3">
     <g id="line2d_12">
      <g>
       <use xlink:href="#me2ba5d5f41" x="53.328125" y="181.674558" style="stroke: #000000; stroke-width: 0.8"/>
      </g>
     </g>
     <g id="text_12">
      <!-- 400 -->
      <g transform="translate(27.240625 185.473776) scale(0.1 -0.1)">
       <use xlink:href="#DejaVuSans-34"/>
       <use xlink:href="#DejaVuSans-30" x="63.623047"/>
       <use xlink:href="#DejaVuSans-30" x="127.246094"/>
      </g>
     </g>
    </g>
    <g id="ytick_4">
     <g id="line2d_13">
      <g>
       <use xlink:href="#me2ba5d5f41" x="53.328125" y="144.392696" style="stroke: #000000; stroke-width: 0.8"/>
      </g>
     </g>
     <g id="text_13">
      <!-- 600 -->
      <g transform="translate(27.240625 148.191914) scale(0.1 -0.1)">
       <use xlink:href="#DejaVuSans-36"/>
       <use xlink:href="#DejaVuSans-30" x="63.623047"/>
       <use xlink:href="#DejaVuSans-30" x="127.246094"/>
      </g>
     </g>
    </g>
    <g id="ytick_5">
     <g id="line2d_14">
      <g>
       <use xlink:href="#me2ba5d5f41" x="53.328125" y="107.110834" style="stroke: #000000; stroke-width: 0.8"/>
      </g>
     </g>
     <g id="text_14">
      <!-- 800 -->
      <g transform="translate(27.240625 110.910053) scale(0.1 -0.1)">
       <use xlink:href="#DejaVuSans-38"/>
       <use xlink:href="#DejaVuSans-30" x="63.623047"/>
       <use xlink:href="#DejaVuSans-30" x="127.246094"/>
      </g>
     </g>
    </g>
    <g id="ytick_6">
     <g id="line2d_15">
      <g>
       <use xlink:href="#me2ba5d5f41" x="53.328125" y="69.828972" style="stroke: #000000; stroke-width: 0.8"/>
      </g>
     </g>
     <g id="text_15">
      <!-- 1000 -->
      <g transform="translate(20.878125 73.628191) scale(0.1 -0.1)">
       <use xlink:href="#DejaVuSans-31"/>
       <use xlink:href="#DejaVuSans-30" x="63.623047"/>
       <use xlink:href="#DejaVuSans-30" x="127.246094"/>
       <use xlink:href="#DejaVuSans-30" x="190.869141"/>
      </g>
     </g>
    </g>
    <g id="ytick_7">
     <g id="line2d_16">
      <g>
       <use xlink:href="#me2ba5d5f41" x="53.328125" y="32.54711" style="stroke: #000000; stroke-width: 0.8"/>
      </g>
     </g>
     <g id="text_16">
      <!-- 1200 -->
      <g transform="translate(20.878125 36.346329) scale(0.1 -0.1)">
       <use xlink:href="#DejaVuSans-31"/>
       <use xlink:href="#DejaVuSans-32" x="63.623047"/>
       <use xlink:href="#DejaVuSans-30" x="127.246094"/>
       <use xlink:href="#DejaVuSans-30" x="190.869141"/>
      </g>
     </g>
    </g>
    <g id="text_17">
     <!-- Count -->
     <g transform="translate(14.798438 153.746719) rotate(-90) scale(0.1 -0.1)">
      <defs>
       <path id="DejaVuSans-43" d="M 4122 4306 
L 4122 3641 
Q 3803 3938 3442 4084 
Q 3081 4231 2675 4231 
Q 1875 4231 1450 3742 
Q 1025 3253 1025 2328 
Q 1025 1406 1450 917 
Q 1875 428 2675 428 
Q 3081 428 3442 575 
Q 3803 722 4122 1019 
L 4122 359 
Q 3791 134 3420 21 
Q 3050 -91 2638 -91 
Q 1578 -91 968 557 
Q 359 1206 359 2328 
Q 359 3453 968 4101 
Q 1578 4750 2638 4750 
Q 3056 4750 3426 4639 
Q 3797 4528 4122 4306 
z
" transform="scale(0.015625)"/>
       <path id="DejaVuSans-6f" d="M 1959 3097 
Q 1497 3097 1228 2736 
Q 959 2375 959 1747 
Q 959 1119 1226 758 
Q 1494 397 1959 397 
Q 2419 397 2687 759 
Q 2956 1122 2956 1747 
Q 2956 2369 2687 2733 
Q 2419 3097 1959 3097 
z
M 1959 3584 
Q 2709 3584 3137 3096 
Q 3566 2609 3566 1747 
Q 3566 888 3137 398 
Q 2709 -91 1959 -91 
Q 1206 -91 779 398 
Q 353 888 353 1747 
Q 353 2609 779 3096 
Q 1206 3584 1959 3584 
z
" transform="scale(0.015625)"/>
       <path id="DejaVuSans-75" d="M 544 1381 
L 544 3500 
L 1119 3500 
L 1119 1403 
Q 1119 906 1312 657 
Q 1506 409 1894 409 
Q 2359 409 2629 706 
Q 2900 1003 2900 1516 
L 2900 3500 
L 3475 3500 
L 3475 0 
L 2900 0 
L 2900 538 
Q 2691 219 2414 64 
Q 2138 -91 1772 -91 
Q 1169 -91 856 284 
Q 544 659 544 1381 
z
M 1991 3584 
L 1991 3584 
z
" transform="scale(0.015625)"/>
       <path id="DejaVuSans-6e" d="M 3513 2113 
L 3513 0 
L 2938 0 
L 2938 2094 
Q 2938 2591 2744 2837 
Q 2550 3084 2163 3084 
Q 1697 3084 1428 2787 
Q 1159 2491 1159 1978 
L 1159 0 
L 581 0 
L 581 3500 
L 1159 3500 
L 1159 2956 
Q 1366 3272 1645 3428 
Q 1925 3584 2291 3584 
Q 2894 3584 3203 3211 
Q 3513 2838 3513 2113 
z
" transform="scale(0.015625)"/>
       <path id="DejaVuSans-74" d="M 1172 4494 
L 1172 3500 
L 2356 3500 
L 2356 3053 
L 1172 3053 
L 1172 1153 
Q 1172 725 1289 603 
Q 1406 481 1766 481 
L 2356 481 
L 2356 0 
L 1766 0 
Q 1100 0 847 248 
Q 594 497 594 1153 
L 594 3053 
L 172 3053 
L 172 3500 
L 594 3500 
L 594 4494 
L 1172 4494 
z
" transform="scale(0.015625)"/>
      </defs>
      <use xlink:href="#DejaVuSans-43"/>
      <use xlink:href="#DejaVuSans-6f" x="69.824219"/>
      <use xlink:href="#DejaVuSans-75" x="131.005859"/>
      <use xlink:href="#DejaVuSans-6e" x="194.384766"/>
      <use xlink:href="#DejaVuSans-74" x="257.763672"/>
     </g>
    </g>
   </g>
   <g id="line2d_17">
    <path d="M 69.874943 252.81524 
L 71.53794 252.899807 
L 73.200937 253.141179 
L 76.52693 253.944309 
L 81.515921 255.233281 
L 84.841914 255.786114 
L 88.167908 256.069379 
L 93.156898 256.200496 
L 106.460873 256.153674 
L 126.416834 255.950001 
L 134.731818 255.640779 
L 153.024783 254.549434 
L 172.980745 253.355065 
L 176.306739 252.887038 
L 181.295729 251.903228 
L 189.610713 250.173899 
L 199.588694 248.32283 
L 202.914687 247.496379 
L 206.240681 246.490111 
L 211.229671 244.702135 
L 219.544655 241.380677 
L 224.533646 239.108857 
L 227.859639 237.359154 
L 231.185633 235.400605 
L 234.511627 233.239043 
L 237.83762 230.864431 
L 241.163614 228.235776 
L 244.489607 225.267386 
L 246.152604 223.60772 
L 247.815601 221.791043 
L 249.478598 219.77708 
L 251.141595 217.517925 
L 252.804591 214.959253 
L 254.467588 212.04163 
L 256.130585 208.701747 
L 257.793582 204.874241 
L 259.456579 200.495922 
L 261.119575 195.515011 
L 262.782572 189.907927 
L 264.445569 183.704427 
L 271.097556 156.987543 
L 272.760553 151.882156 
L 274.42355 148.493198 
L 276.086547 147.298539 
L 277.749543 148.587046 
L 279.41254 152.387378 
L 281.075537 158.445695 
L 282.738534 166.261422 
L 289.390521 201.768082 
L 291.053518 208.940739 
L 292.716515 214.879312 
L 294.379511 219.590042 
L 296.042508 223.181198 
L 297.705505 225.817328 
L 299.368502 227.683209 
L 301.031499 228.960273 
L 302.694495 229.813728 
L 304.357492 230.386607 
L 307.683486 231.138432 
L 311.009479 231.852814 
L 314.335473 232.771659 
L 322.650457 235.289242 
L 325.976451 235.936922 
L 329.302444 236.251683 
L 332.628438 236.226734 
L 335.954432 235.903484 
L 342.606419 235.021474 
L 344.269416 234.958413 
L 345.932412 235.032377 
L 347.595409 235.265478 
L 349.258406 235.664321 
L 350.921403 236.219558 
L 354.247396 237.703505 
L 357.57339 239.499333 
L 362.56238 242.526615 
L 365.888374 244.783705 
L 374.203358 250.671357 
L 377.529352 252.532488 
L 379.192348 253.271575 
L 380.855345 253.881902 
L 384.181339 254.761529 
L 387.507332 255.299293 
L 392.496323 255.746027 
L 399.14831 256.043766 
L 400.811307 256.088731 
L 400.811307 256.088731 
" clip-path="url(#p6eaf620a8c)" style="fill: none; stroke: #447fdd; stroke-width: 1.5; stroke-linecap: square"/>
   </g>
   <g id="line2d_18">
    <path d="M 276.438964 256.238281 
L 276.438964 21.558281 
" clip-path="url(#p6eaf620a8c)" style="fill: none; stroke-dasharray: 5.55,2.4; stroke-dashoffset: 0; stroke: #000000; stroke-width: 1.5"/>
   </g>
   <g id="line2d_19">
    <path d="M 276.76534 256.238281 
L 276.76534 21.558281 
" clip-path="url(#p6eaf620a8c)" style="fill: none; stroke-dasharray: 1.5,2.475; stroke-dashoffset: 0; stroke: #808080; stroke-width: 1.5"/>
   </g>
   <g id="patch_91">
    <path d="M 53.328125 256.238281 
L 53.328125 21.558281 
" style="fill: none; stroke: #000000; stroke-width: 0.8; stroke-linejoin: miter; stroke-linecap: square"/>
   </g>
   <g id="patch_92">
    <path d="M 417.358125 256.238281 
L 417.358125 21.558281 
" style="fill: none; stroke: #000000; stroke-width: 0.8; stroke-linejoin: miter; stroke-linecap: square"/>
   </g>
   <g id="patch_93">
    <path d="M 53.328125 256.238281 
L 417.358125 256.238281 
" style="fill: none; stroke: #000000; stroke-width: 0.8; stroke-linejoin: miter; stroke-linecap: square"/>
   </g>
   <g id="patch_94">
    <path d="M 53.328125 21.558281 
L 417.358125 21.558281 
" style="fill: none; stroke: #000000; stroke-width: 0.8; stroke-linejoin: miter; stroke-linecap: square"/>
   </g>
   <g id="text_18">
    <!-- Income entropy -->
    <g transform="translate(192.080469 15.558281) scale(0.11 -0.11)">
     <defs>
      <path id="DejaVuSans-49" d="M 628 4666 
L 1259 4666 
L 1259 0 
L 628 0 
L 628 4666 
z
" transform="scale(0.015625)"/>
      <path id="DejaVuSans-63" d="M 3122 3366 
L 3122 2828 
Q 2878 2963 2633 3030 
Q 2388 3097 2138 3097 
Q 1578 3097 1268 2742 
Q 959 2388 959 1747 
Q 959 1106 1268 751 
Q 1578 397 2138 397 
Q 2388 397 2633 464 
Q 2878 531 3122 666 
L 3122 134 
Q 2881 22 2623 -34 
Q 2366 -91 2075 -91 
Q 1284 -91 818 406 
Q 353 903 353 1747 
Q 353 2603 823 3093 
Q 1294 3584 2113 3584 
Q 2378 3584 2631 3529 
Q 2884 3475 3122 3366 
z
" transform="scale(0.015625)"/>
      <path id="DejaVuSans-6d" d="M 3328 2828 
Q 3544 3216 3844 3400 
Q 4144 3584 4550 3584 
Q 5097 3584 5394 3201 
Q 5691 2819 5691 2113 
L 5691 0 
L 5113 0 
L 5113 2094 
Q 5113 2597 4934 2840 
Q 4756 3084 4391 3084 
Q 3944 3084 3684 2787 
Q 3425 2491 3425 1978 
L 3425 0 
L 2847 0 
L 2847 2094 
Q 2847 2600 2669 2842 
Q 2491 3084 2119 3084 
Q 1678 3084 1418 2786 
Q 1159 2488 1159 1978 
L 1159 0 
L 581 0 
L 581 3500 
L 1159 3500 
L 1159 2956 
Q 1356 3278 1631 3431 
Q 1906 3584 2284 3584 
Q 2666 3584 2933 3390 
Q 3200 3197 3328 2828 
z
" transform="scale(0.015625)"/>
      <path id="DejaVuSans-65" d="M 3597 1894 
L 3597 1613 
L 953 1613 
Q 991 1019 1311 708 
Q 1631 397 2203 397 
Q 2534 397 2845 478 
Q 3156 559 3463 722 
L 3463 178 
Q 3153 47 2828 -22 
Q 2503 -91 2169 -91 
Q 1331 -91 842 396 
Q 353 884 353 1716 
Q 353 2575 817 3079 
Q 1281 3584 2069 3584 
Q 2775 3584 3186 3129 
Q 3597 2675 3597 1894 
z
M 3022 2063 
Q 3016 2534 2758 2815 
Q 2500 3097 2075 3097 
Q 1594 3097 1305 2825 
Q 1016 2553 972 2059 
L 3022 2063 
z
" transform="scale(0.015625)"/>
      <path id="DejaVuSans-20" transform="scale(0.015625)"/>
      <path id="DejaVuSans-72" d="M 2631 2963 
Q 2534 3019 2420 3045 
Q 2306 3072 2169 3072 
Q 1681 3072 1420 2755 
Q 1159 2438 1159 1844 
L 1159 0 
L 581 0 
L 581 3500 
L 1159 3500 
L 1159 2956 
Q 1341 3275 1631 3429 
Q 1922 3584 2338 3584 
Q 2397 3584 2469 3576 
Q 2541 3569 2628 3553 
L 2631 2963 
z
" transform="scale(0.015625)"/>
      <path id="DejaVuSans-70" d="M 1159 525 
L 1159 -1331 
L 581 -1331 
L 581 3500 
L 1159 3500 
L 1159 2969 
Q 1341 3281 1617 3432 
Q 1894 3584 2278 3584 
Q 2916 3584 3314 3078 
Q 3713 2572 3713 1747 
Q 3713 922 3314 415 
Q 2916 -91 2278 -91 
Q 1894 -91 1617 61 
Q 1341 213 1159 525 
z
M 3116 1747 
Q 3116 2381 2855 2742 
Q 2594 3103 2138 3103 
Q 1681 3103 1420 2742 
Q 1159 2381 1159 1747 
Q 1159 1113 1420 752 
Q 1681 391 2138 391 
Q 2594 391 2855 752 
Q 3116 1113 3116 1747 
z
" transform="scale(0.015625)"/>
      <path id="DejaVuSans-79" d="M 2059 -325 
Q 1816 -950 1584 -1140 
Q 1353 -1331 966 -1331 
L 506 -1331 
L 506 -850 
L 844 -850 
Q 1081 -850 1212 -737 
Q 1344 -625 1503 -206 
L 1606 56 
L 191 3500 
L 800 3500 
L 1894 763 
L 2988 3500 
L 3597 3500 
L 2059 -325 
z
" transform="scale(0.015625)"/>
     </defs>
     <use xlink:href="#DejaVuSans-49"/>
     <use xlink:href="#DejaVuSans-6e" x="29.492188"/>
     <use xlink:href="#DejaVuSans-63" x="92.871094"/>
     <use xlink:href="#DejaVuSans-6f" x="147.851562"/>
     <use xlink:href="#DejaVuSans-6d" x="209.033203"/>
     <use xlink:href="#DejaVuSans-65" x="306.445312"/>
     <use xlink:href="#DejaVuSans-20" x="367.96875"/>
     <use xlink:href="#DejaVuSans-65" x="399.755859"/>
     <use xlink:href="#DejaVuSans-6e" x="461.279297"/>
     <use xlink:href="#DejaVuSans-74" x="524.658203"/>
     <use xlink:href="#DejaVuSans-72" x="563.867188"/>
     <use xlink:href="#DejaVuSans-6f" x="602.730469"/>
     <use xlink:href="#DejaVuSans-70" x="663.912109"/>
     <use xlink:href="#DejaVuSans-79" x="727.388672"/>
    </g>
   </g>
   <g id="legend_1">
    <g id="line2d_20">
     <path d="M 351.322031 33.346875 
L 360.322031 33.346875 
L 369.322031 33.346875 
" style="fill: none; stroke-dasharray: 5.55,2.4; stroke-dashoffset: 0; stroke: #000000; stroke-width: 1.5"/>
    </g>
    <g id="text_19">
     <!-- Mean -->
     <g transform="translate(376.522031 36.496875) scale(0.09 -0.09)">
      <defs>
       <path id="DejaVuSans-4d" d="M 628 4666 
L 1569 4666 
L 2759 1491 
L 3956 4666 
L 4897 4666 
L 4897 0 
L 4281 0 
L 4281 4097 
L 3078 897 
L 2444 897 
L 1241 4097 
L 1241 0 
L 628 0 
L 628 4666 
z
" transform="scale(0.015625)"/>
       <path id="DejaVuSans-61" d="M 2194 1759 
Q 1497 1759 1228 1600 
Q 959 1441 959 1056 
Q 959 750 1161 570 
Q 1363 391 1709 391 
Q 2188 391 2477 730 
Q 2766 1069 2766 1631 
L 2766 1759 
L 2194 1759 
z
M 3341 1997 
L 3341 0 
L 2766 0 
L 2766 531 
Q 2569 213 2275 61 
Q 1981 -91 1556 -91 
Q 1019 -91 701 211 
Q 384 513 384 1019 
Q 384 1609 779 1909 
Q 1175 2209 1959 2209 
L 2766 2209 
L 2766 2266 
Q 2766 2663 2505 2880 
Q 2244 3097 1772 3097 
Q 1472 3097 1187 3025 
Q 903 2953 641 2809 
L 641 3341 
Q 956 3463 1253 3523 
Q 1550 3584 1831 3584 
Q 2591 3584 2966 3190 
Q 3341 2797 3341 1997 
z
" transform="scale(0.015625)"/>
      </defs>
      <use xlink:href="#DejaVuSans-4d"/>
      <use xlink:href="#DejaVuSans-65" x="86.279297"/>
      <use xlink:href="#DejaVuSans-61" x="147.802734"/>
      <use xlink:href="#DejaVuSans-6e" x="209.082031"/>
     </g>
    </g>
    <g id="line2d_21">
     <path d="M 351.322031 46.557187 
L 360.322031 46.557187 
L 369.322031 46.557187 
" style="fill: none; stroke-dasharray: 1.5,2.475; stroke-dashoffset: 0; stroke: #808080; stroke-width: 1.5"/>
    </g>
    <g id="text_20">
     <!-- Median -->
     <g transform="translate(376.522031 49.707187) scale(0.09 -0.09)">
      <defs>
       <path id="DejaVuSans-64" d="M 2906 2969 
L 2906 4863 
L 3481 4863 
L 3481 0 
L 2906 0 
L 2906 525 
Q 2725 213 2448 61 
Q 2172 -91 1784 -91 
Q 1150 -91 751 415 
Q 353 922 353 1747 
Q 353 2572 751 3078 
Q 1150 3584 1784 3584 
Q 2172 3584 2448 3432 
Q 2725 3281 2906 2969 
z
M 947 1747 
Q 947 1113 1208 752 
Q 1469 391 1925 391 
Q 2381 391 2643 752 
Q 2906 1113 2906 1747 
Q 2906 2381 2643 2742 
Q 2381 3103 1925 3103 
Q 1469 3103 1208 2742 
Q 947 2381 947 1747 
z
" transform="scale(0.015625)"/>
       <path id="DejaVuSans-69" d="M 603 3500 
L 1178 3500 
L 1178 0 
L 603 0 
L 603 3500 
z
M 603 4863 
L 1178 4863 
L 1178 4134 
L 603 4134 
L 603 4863 
z
" transform="scale(0.015625)"/>
      </defs>
      <use xlink:href="#DejaVuSans-4d"/>
      <use xlink:href="#DejaVuSans-65" x="86.279297"/>
      <use xlink:href="#DejaVuSans-64" x="147.802734"/>
      <use xlink:href="#DejaVuSans-69" x="211.279297"/>
      <use xlink:href="#DejaVuSans-61" x="239.0625"/>
      <use xlink:href="#DejaVuSans-6e" x="300.341797"/>
     </g>
    </g>
   </g>
  </g>
 </g>
 <defs>
  <clipPath id="p6eaf620a8c">
   <rect x="53.328125" y="21.558281" width="364.03" height="234.68"/>
  </clipPath>
 </defs>
</svg>
